<svg id="_x33_0" enable-background="new 0 0 64 64" height="512" viewBox="0 0 64 64" width="512" xmlns="http://www.w3.org/2000/svg"><g><g><g><path d="m50 25c0-1.03-.12-2.04-.35-3-1.05-4.43-4.36-7.99-8.65-9.37v.37c0 .55-.45 1-1 1h-5v8 3c0 .55-.45 1-1 1h-4c-.55 0-1-.45-1-1v-3-8h-5c-.55 0-1-.45-1-1v-.37c-4.29 1.38-7.6 4.94-8.65 9.37-.23.96-.35 1.97-.35 3v16.75.01c1.13-.54 2-.76 2-.76s-1.54 4.63-1.92 8.46c.03-.02.07-.04.11-.06l1.97-.98c.55-.28 1.16-.42 1.78-.42h2.73c.86 0 1.7.28 2.4.8l.1.07 3.03-2.27c.52-.39 1.15-.6 1.8-.6h2.76c.79 0 1.56.32 2.12.88l2.95 2.95c.41.41.9.72 1.43.91l3.57-3.57c.75-.75 1.77-1.17 2.83-1.17h2.4c.62 0 1.23.14 1.78.42l.14.07c-.23-3.74-2.98-6.49-2.98-6.49s2.63.88 4.99 2.63c-.15-2.93-1.88-7.34-1.98-7.62.1.05.89.46 1.99 1.31z" fill="#ccd1d9"/></g><g><path d="m41 12.63v.37c0 .55-.45 1-1 1h-5v8 3c0 .55-.45 1-1 1h-4c-.55 0-1-.45-1-1v-3-8h-5c-.55 0-1-.45-1-1v-.37-3.63c0-.55.45-1 1-1h5v-5c0-.55.45-1 1-1h4c.55 0 1 .45 1 1v5h5c.55 0 1 .45 1 1z" fill="#aab2bd"/></g><g><path d="m35.83 49.83c.41.41.9.72 1.43.91l3.57-3.57c.75-.75 1.77-1.17 2.83-1.17h2.4c.62 0 1.23.14 1.78.42l.14.07 1.83.91c.77.39 1.4 1.02 1.79 1.79l1.4 2.81h1.6c.13 0 .27.01.4.02.77.08 1.49.37 2.1.86l2.7 2.16c.07.06.14.11.2.17.66.61 1.1 1.42 1.25 2.3l.75 4.49h-60l.75-4.49c.15-.88.59-1.69 1.25-2.3.06-.06.13-.11.2-.17l2.7-2.16c.61-.49 1.33-.78 2.1-.86.13-.01.27-.02.4-.02h2.6l.4-.81c.37-.73.96-1.34 1.68-1.73.03-.02.07-.04.11-.06l1.97-.98c.55-.28 1.16-.42 1.78-.42h2.73c.86 0 1.7.28 2.4.8l.1.07 3.03-2.27c.52-.39 1.15-.6 1.8-.6h2.76c.79 0 1.56.32 2.12.88z" fill="#cf9e76"/></g><g><path d="m16 41s-1.54 4.63-1.92 8.46c-.72.39-1.31 1-1.68 1.73l-.4.81h-2.6c-.13 0-.27.01-.4.02-.95-1.89-2.56-3.12-4-3.88 0-2.95-1.94-9.92-1.99-10.13.24.12 4.08 2.15 6.99 6.99 1.07-1.6 2.71-2.63 4-3.24 1.13-.54 2-.76 2-.76z" fill="#b4dd7f"/></g><g><path d="m4 55.21c0-4-2-8.21-2-8.21s1.39.28 3 1.14c1.44.76 3.05 1.99 4 3.88-.77.08-1.49.37-2.1.86l-2.7 2.16c-.07.06-.14.11-.2.17z" fill="#a0d468"/></g><g><path d="m62 47s-2 4.21-2 8.21c-.06-.06-.13-.11-.2-.17l-2.7-2.16c-.61-.49-1.33-.78-2.1-.86.95-1.89 2.56-3.12 4-3.88 1.61-.86 3-1.14 3-1.14z" fill="#a0d468"/></g><g><path d="m59 48.14c-1.44.76-3.05 1.99-4 3.88-.13-.01-.27-.02-.4-.02h-1.6l-1.4-2.81c-.39-.77-1.02-1.4-1.79-1.79l-1.83-.91c-.23-3.74-2.98-6.49-2.98-6.49s2.63.88 4.99 2.63c-.15-2.93-1.88-7.34-1.98-7.62.1.05.89.46 1.99 1.31 1.42 1.1 3.36 2.94 5 5.68 2-3 6-4 6-4s-2 6.14-2 10.14z" fill="#b4dd7f"/></g></g><g><path d="m21 37h2c1.103 0 2 .897 2 2v4h2v-4c0-1.2-.542-2.266-1.382-3 .84-.734 1.382-1.8 1.382-3 0-2.206-1.794-4-4-4h-4v14h2zm0-6h2c1.103 0 2 .897 2 2s-.897 2-2 2h-2z"/><path d="m39 37h2c2.206 0 4-1.794 4-4s-1.794-4-4-4h-4v14h2zm0-6h2c1.103 0 2 .897 2 2s-.897 2-2 2h-2z"/><path d="m35 41h-2v-10h2v-2h-6v2h2v10h-2v2h6z"/><path d="m61.012 54.824c.122-3.605 1.874-7.356 1.892-7.395l.856-1.808-1.96.4c-.077.016-.762.165-1.707.526.383-3.671 1.841-8.185 1.858-8.237l.56-1.718-1.753.438c-.156.039-3.39.872-5.667 3.265-1.382-2.002-2.871-3.454-4.091-4.451v-10.844c0-5.849-3.59-11.006-9-13.07v-2.93c0-1.103-.897-2-2-2h-4v-4c0-1.103-.897-2-2-2h-4c-1.103 0-2 .897-2 2v4h-4c-1.103 0-2 .897-2 2v2.93c-5.41 2.064-9 7.221-9 13.07v16.138c-.953.506-2.006 1.207-2.909 2.157-2.983-4.324-6.483-6.109-6.644-6.189l-2.019-1.009.609 2.173c.016.059 1.395 5.01 1.829 8.261-.924-.35-1.59-.495-1.666-.511l-1.959-.399.856 1.808c.018.039 1.77 3.789 1.892 7.395-.637.705-1.068 1.574-1.226 2.522l-.944 5.654h62.361l-.943-5.654c-.157-.949-.589-1.818-1.225-2.522zm-1.872-1.593-1.419-1.136c-.352-.282-.747-.497-1.158-.674 1.053-1.382 2.525-2.263 3.706-2.782-.428 1.217-.901 2.855-1.129 4.592zm-4.997-10.716.813 1.355.876-1.315c.953-1.429 2.457-2.361 3.638-2.915-.564 2.032-1.34 5.266-1.448 7.901-1.291.763-2.641 1.877-3.591 3.459h-.813l-1.127-2.254c-.48-.962-1.274-1.756-2.236-2.236l-1.346-.673c-.163-1.276-.558-2.434-1.032-3.4 1.59.922 3.356 2.266 4.229 4.011l1.789-.895c-.687-1.373-1.778-2.52-2.955-3.45-.137-1.454-.553-3.125-.985-4.527 1.266 1.068 2.833 2.681 4.188 4.939zm-5.83-21.515h-12.313v-6h4c.747 0 1.393-.417 1.736-1.026 3.125 1.338 5.479 3.905 6.577 7.026zm-24.313-12h6v-6h4v6l6 .003v3.997h-6v12h-4v-12h-6zm-1.736 4.974c.343.609.989 1.026 1.736 1.026h4v6h-12.313c1.098-3.121 3.452-5.688 6.577-7.026zm-7.264 11.026c0-.679.059-1.347.168-2h12.832v2c0 1.103.897 2 2 2h4c1.103 0 2-.897 2-2v-2h12.832c.109.653.168 1.321.168 2v9.418c-.315-.19-.518-.295-.553-.312l-2.353-1.176.977 2.442c.014.034 1.076 2.711 1.617 5.228-1.753-.995-3.247-1.507-3.372-1.549l-4.019-1.339 2.996 2.995c.021.021 1.764 1.797 2.44 4.344-.225-.031-.451-.051-.677-.051h-2.399c-1.335 0-2.591.52-3.535 1.464l-3.065 3.065c-.187-.118-.364-.25-.521-.407l-2.95-2.95c-.755-.756-1.76-1.172-2.829-1.172h-2.757c-.86 0-1.712.284-2.4.8l-2.477 1.857c-.748-.421-1.596-.657-2.456-.657h-2.722c-.772 0-1.545.183-2.236.528l-.373.187c.553-3.188 1.601-6.36 1.614-6.398l.576-1.728-1.767.441c-.043.011-.328.085-.757.234v-15.264zm-10.361 15.314c1.314 1.06 3.034 2.75 4.504 5.2l.813 1.355.876-1.315c.949-1.424 2.446-2.354 3.625-2.909-.456 1.618-1.046 3.997-1.313 6.228-.689.477-1.26 1.12-1.635 1.871l-.127.256h-1.813c-.951-1.584-2.302-2.699-3.595-3.462-.124-2.002-.798-5.05-1.335-7.224zm2.8 11.107c-.412.176-.807.392-1.159.674l-1.42 1.136c-.229-1.74-.703-3.381-1.13-4.598 1.18.517 2.653 1.398 3.709 2.788zm-4.258 9.579.554-3.326c.122-.729.507-1.386 1.085-1.849l2.709-2.167c.53-.425 1.196-.658 1.874-.658h3.354c.534 0 1.037.208 1.415.586l3.121 3.121 1.414-1.414-3.121-3.121c-.54-.54-1.21-.898-1.937-1.063.27-.335.604-.617.991-.81l1.963-.981c.414-.209.878-.318 1.341-.318h2.722c.645 0 1.285.213 1.8.6l2.933 2.2 1.2-1.6-1.766-1.325 1.967-1.475c.344-.258.77-.4 1.2-.4h2.757c.534 0 1.037.208 1.415.586l2.95 2.95c.944.944 2.199 1.464 3.535 1.464h3.343v-2h-2.586l2.122-2.122c.558-.558 1.331-.878 2.121-.878h2.399c.463 0 .927.109 1.342.317l1.963.981c.577.288 1.053.764 1.341 1.341l.68 1.36h-.139c-1.068 0-2.073.416-2.829 1.172l-3.121 3.121 1.414 1.414 3.121-3.121c.378-.377.88-.585 1.415-.585h3.354c.679 0 1.344.233 1.875.657l2.708 2.167c.579.463.964 1.12 1.085 1.85l.554 3.326z"/><path d="m24.121 54.707-1.414-1.414-1.414 1.414 1.414 1.414c.566.567 1.32.879 2.122.879h2.171v-2h-2.171c-.267 0-.519-.104-.708-.293z"/><path d="m31.879 52.707c-.189.189-.441.293-.708.293h-1.171v2h1.171c.801 0 1.555-.312 2.122-.879l1.414-1.414-1.414-1.414z"/><path d="m44 50h2v2h-2z"/><path d="m9 57h2v2h-2z"/><path d="m41.121 56.707-1.414-1.414-1.414 1.414 1.414 1.414c.566.567 1.32.879 2.122.879h2.171v-2h-2.171c-.267 0-.519-.104-.708-.293z"/><path d="m52 57h2v2h-2z"/><path d="m32 57h2v2h-2z"/></g></g></svg>