<svg id="Capa_1" enable-background="new 0 0 512.242 512.242" height="512" viewBox="0 0 512.242 512.242" width="512" xmlns="http://www.w3.org/2000/svg"><g><g><g><path d="m423.677 42.278c9.371 0 16.969 7.597 16.969 16.969v428.528c0 9.371-7.597 16.969-16.969 16.969h-300.334c-9.371 0-16.969-7.597-16.969-16.969v-445.497z" fill="#cdbfba"/></g></g><g><path d="m125.578 7.5h263.321c9.371 0 16.969 7.597 16.969 16.969v428.528c0 9.371-7.597 16.969-16.969 16.969h-300.334c-9.371 0-16.969-7.597-16.969-16.969v-393.08z" fill="#f9f3f1"/></g><g><path d="m405.869 24.465v428.535c0 9.368-7.595 16.963-16.973 16.963h-20.039c9.378 0 16.973-7.595 16.973-16.963v-428.535c0-9.368-7.595-16.963-16.973-16.963h20.039c9.378.001 16.973 7.595 16.973 16.963z" fill="#efe2dd"/></g><g><path d="m125.578 7.5-.126 46.002c-.01 3.623-2.955 6.551-6.577 6.542l-47.279-.126z" fill="#cdbfba"/></g><g><g><path d="m287.333 151.269h-22.499c-4.429 0-8.019-3.59-8.019-8.019v-22.499c0-4.429-3.59-8.019-8.019-8.019h-20.13c-4.429 0-8.019 3.59-8.019 8.019v22.499c0 4.429-3.59 8.019-8.019 8.019h-22.499c-4.429 0-8.019 3.59-8.019 8.019v20.13c0 4.429 3.59 8.019 8.019 8.019h22.499c4.429 0 8.019 3.59 8.019 8.019v22.499c0 4.429 3.59 8.019 8.019 8.019h20.13c4.429 0 8.019-3.59 8.019-8.019v-22.499c0-4.429 3.59-8.019 8.019-8.019h22.499c4.429 0 8.019-3.59 8.019-8.019v-20.13c0-4.429-3.59-8.019-8.019-8.019z" fill="#ee6161"/></g><g><path d="m244.663 187.432h20.169c-4.428 0-8.015 3.597-8.015 8.025v22.493c0 4.428-3.587 8.025-8.015 8.025h-20.139c4.408-.02 7.975-3.607 7.975-8.025v-22.493c0-4.428 3.597-8.025 8.025-8.025z" fill="#e94444"/></g><g><path d="m264.832 151.272h-20.169c-4.429 0-8.025-3.597-8.025-8.025v-22.493c0-4.419-3.567-8.005-7.975-8.025h20.139c4.429 0 8.015 3.597 8.015 8.025v22.493c0 4.429 3.587 8.025 8.015 8.025z" fill="#e94444"/></g><g><path d="m295.351 159.288v20.129c0 4.428-3.587 8.015-8.015 8.015h-20.179c4.429 0 8.025-3.587 8.025-8.015v-20.129c0-4.428-3.597-8.015-8.025-8.015h20.179c4.428-.001 8.015 3.586 8.015 8.015z" fill="#e94444"/></g><g><path d="m423.677 34.777h-10.31v-10.31c.001-13.49-10.976-24.467-24.468-24.467h-263.32c-1.951 0-3.825.76-5.225 2.119l-53.982 52.417c-1.455 1.412-2.275 3.354-2.275 5.381v287.138c0 4.143 3.358 7.5 7.5 7.5s7.5-3.357 7.5-7.5v-279.618l39.759.106h.039c3.741 0 7.26-1.452 9.914-4.091 2.663-2.648 4.135-6.176 4.145-9.931l.104-38.521h179.932v77.815c0 12.511 10.179 22.689 22.69 22.689s22.689-10.179 22.689-22.689v-38.647c0-4.143-3.358-7.5-7.5-7.5s-7.5 3.357-7.5 7.5v38.647c0 4.24-3.45 7.689-7.689 7.689-4.24 0-7.69-3.449-7.69-7.689v-77.815h60.91c5.221 0 9.468 4.247 9.468 9.468v111.083c0 4.143 3.358 7.5 7.5 7.5s7.5-3.357 7.5-7.5v-85.774h10.31c5.221 0 9.469 4.248 9.469 9.469v428.528c0 5.221-4.248 9.468-9.469 9.468h-300.335c-5.221 0-9.468-4.247-9.468-9.468v-10.31h275.025c13.492 0 24.468-10.977 24.468-24.469v-282.766c0-4.143-3.358-7.5-7.5-7.5s-7.5 3.357-7.5 7.5v282.768c0 5.221-4.248 9.469-9.468 9.469h-300.335c-5.221 0-9.469-4.248-9.469-9.469v-71.027c0-4.143-3.358-7.5-7.5-7.5s-7.5 3.357-7.5 7.5v71.026c0 13.492 10.977 24.469 24.469 24.469h10.31v10.31c0 13.491 10.977 24.468 24.468 24.468h300.334c13.492 0 24.469-10.977 24.469-24.468v-428.529c0-13.492-10.977-24.469-24.469-24.469zm-305.722 17.763-27.919-.074 18.557-18.02 9.436-9.162z"/><path d="m248.797 105.232h-20.13c-8.557 0-15.519 6.962-15.519 15.519v22.499c0 .286-.233.519-.519.519h-22.499c-8.557 0-15.519 6.962-15.519 15.519v20.13c0 8.558 6.962 15.52 15.519 15.52h22.499c.286 0 .519.232.519.519v22.499c0 8.557 6.961 15.519 15.519 15.519h20.13c8.557 0 15.519-6.962 15.519-15.519v-22.499c0-.286.233-.519.519-.519h22.499c8.557 0 15.519-6.962 15.519-15.52v-20.13c0-8.557-6.962-15.519-15.519-15.519h-22.499c-.286 0-.519-.232-.519-.519v-22.499c0-8.557-6.962-15.519-15.519-15.519zm16.038 53.537h22.499c.286 0 .519.232.519.519v20.13c0 .286-.233.52-.519.52h-22.499c-8.557 0-15.519 6.962-15.519 15.519v22.499c0 .286-.233.519-.519.519h-20.13c-.286 0-.519-.232-.519-.519v-22.499c0-8.557-6.962-15.519-15.519-15.519h-22.499c-.286 0-.519-.233-.519-.52v-20.13c0-.286.233-.519.519-.519h22.499c8.557 0 15.519-6.962 15.519-15.519v-22.499c0-.286.232-.519.519-.519h20.13c.286 0 .519.232.519.519v22.499c0 8.557 6.962 15.519 15.519 15.519z"/><g><path d="m211.43 266.664h-86.822c-4.142 0-7.5 3.357-7.5 7.5s3.358 7.5 7.5 7.5h86.822c4.142 0 7.5-3.357 7.5-7.5s-3.358-7.5-7.5-7.5z"/><path d="m256.121 281.664h96.735c4.142 0 7.5-3.357 7.5-7.5s-3.358-7.5-7.5-7.5h-96.735c-4.142 0-7.5 3.357-7.5 7.5s3.358 7.5 7.5 7.5z"/><path d="m211.43 307.152h-86.822c-4.142 0-7.5 3.357-7.5 7.5s3.358 7.5 7.5 7.5h86.822c4.142 0 7.5-3.357 7.5-7.5s-3.358-7.5-7.5-7.5z"/><path d="m352.856 307.152h-96.735c-4.142 0-7.5 3.357-7.5 7.5s3.358 7.5 7.5 7.5h96.735c4.142 0 7.5-3.357 7.5-7.5s-3.357-7.5-7.5-7.5z"/><path d="m211.43 347.642h-86.822c-4.142 0-7.5 3.357-7.5 7.5s3.358 7.5 7.5 7.5h86.822c4.142 0 7.5-3.357 7.5-7.5s-3.358-7.5-7.5-7.5z"/><path d="m352.856 347.642h-96.735c-4.142 0-7.5 3.357-7.5 7.5s3.358 7.5 7.5 7.5h96.735c4.142 0 7.5-3.357 7.5-7.5s-3.357-7.5-7.5-7.5z"/><path d="m211.43 388.13h-86.822c-4.142 0-7.5 3.357-7.5 7.5s3.358 7.5 7.5 7.5h86.822c4.142 0 7.5-3.357 7.5-7.5s-3.358-7.5-7.5-7.5z"/><path d="m352.856 388.13h-96.735c-4.142 0-7.5 3.357-7.5 7.5s3.358 7.5 7.5 7.5h96.735c4.142 0 7.5-3.357 7.5-7.5s-3.357-7.5-7.5-7.5z"/></g></g></g></g></svg>